<?xml version="1.0" standalone="no"?>
<!DOCTYPE svg PUBLIC "-//W3C//DTD SVG 20010904//EN"
 "http://www.w3.org/TR/2001/REC-SVG-20010904/DTD/svg10.dtd">
<svg version="1.0" xmlns="http://www.w3.org/2000/svg"
 width="500.000000pt" height="500.000000pt" viewBox="0 0 500.000000 500.000000"
 preserveAspectRatio="xMidYMid meet">

<g transform="translate(0.000000,500.000000) scale(0.100000,-0.100000)"
fill="#000000" stroke="none">
<path d="M0 2500 l0 -2500 2500 0 2500 0 0 2500 0 2500 -2500 0 -2500 0 0
-2500z m2500 1565 l0 -315 88 0 c77 0 96 -4 143 -27 67 -35 115 -96 125 -160
10 -67 0 -77 -80 -81 -74 -3 -96 7 -96 42 0 41 -17 46 -163 46 -76 0 -147 -5
-158 -10 -18 -10 -19 -24 -19 -248 0 -172 3 -241 12 -250 17 -17 302 -17 315
1 6 6 13 24 17 38 7 30 28 39 94 39 63 0 82 -13 82 -58 -1 -76 -64 -164 -142
-196 -29 -12 -78 -16 -215 -16 -165 -1 -176 -2 -150 -16 15 -8 55 -20 88 -26
l59 -10 0 -227 0 -226 -116 3 c-64 2 -120 0 -125 -5 -12 -12 -33 -155 -33
-228 0 -33 4 -87 10 -120 7 -48 13 -60 29 -63 11 -1 43 -10 72 -19 47 -15 56
-15 107 -1 l55 15 4 -186 c3 -102 8 -202 12 -221 5 -28 2 -41 -13 -60 -19 -24
-19 -25 -1 -67 10 -24 14 -43 9 -43 -6 0 -10 -37 -10 -85 l0 -85 27 0 c50 0
63 -24 63 -113 0 -102 -11 -116 -89 -118 -31 -1 -44 -4 -28 -6 l27 -4 0 -290
c0 -272 -1 -290 -18 -285 -404 116 -738 272 -1000 468 -127 95 -301 270 -380
383 -68 96 -158 271 -191 372 -51 152 -51 162 -51 1279 0 988 1 1044 18 1044
9 0 73 7 142 14 461 52 908 179 1355 384 61 28 113 51 118 51 4 1 7 -141 7
-314z m1164 -321 c8 -3 58 -114 115 -258 l101 -253 0 -169 c0 -93 -4 -175 -9
-182 -5 -9 -30 -12 -87 -10 l-79 3 -3 83 -3 82 -174 0 -174 0 -3 -82 -3 -83
-73 -3 c-48 -2 -79 1 -89 9 -12 10 -14 43 -11 188 l3 176 94 235 c52 129 101
243 109 253 13 14 34 17 143 17 70 0 134 -3 143 -6z m-1166 -561 l-3 -78 -32
44 c-56 75 -56 154 0 218 l32 36 3 -71 c2 -39 2 -106 0 -149z m258 -1647 c15
-37 24 -80 24 -113 0 -46 -3 -53 -20 -53 -13 0 -20 7 -20 20 0 17 -7 20 -45
20 -38 0 -45 -3 -45 -20 0 -15 -7 -20 -25 -20 -23 0 -25 3 -25 50 0 30 10 75
26 115 l27 66 39 -3 c39 -3 41 -5 64 -62z m177 24 l23 -40 23 40 c16 30 29 40
47 40 l24 0 0 -115 0 -115 -25 0 c-24 0 -25 2 -25 72 0 68 -1 71 -16 50 -19
-28 -37 -28 -57 1 -15 21 -16 18 -16 -50 -1 -71 -2 -73 -26 -73 l-25 0 0 108
c0 60 3 112 7 115 17 17 44 4 66 -33z m377 15 c0 -21 -5 -25 -30 -25 l-30 0 0
-64 c0 -63 1 -65 28 -68 19 -2 28 -9 30 -25 3 -22 1 -23 -88 -23 -89 0 -91 1
-88 23 2 17 11 23 36 25 l32 3 0 65 0 64 -29 0 c-33 0 -46 13 -37 35 4 12 25
15 91 15 84 0 85 0 85 -25z m177 -17 l43 -42 0 42 c0 38 2 42 25 42 l25 0 0
-115 0 -115 -25 0 c-23 0 -25 4 -25 44 0 40 -4 48 -42 81 l-43 36 -3 -80 c-3
-79 -4 -81 -27 -81 l-25 0 0 108 c0 60 3 112 7 115 16 17 51 4 90 -35z m335
25 c24 -22 24 -53 -1 -53 -11 0 -23 5 -26 10 -3 6 -24 10 -46 10 l-39 0 0 -66
0 -65 42 3 c31 2 44 8 46 21 3 12 -3 17 -22 17 -21 0 -26 5 -26 25 0 23 4 25
45 25 l45 0 0 -52 c0 -71 -17 -88 -88 -88 -81 0 -92 13 -92 116 0 74 2 84 22
98 30 22 116 21 140 -1z m-967 -408 c0 -18 -8 -20 -67 -23 -60 -3 -68 -5 -68
-22 0 -18 7 -20 60 -20 57 0 60 -1 60 -25 0 -24 -3 -25 -60 -25 -53 0 -60 -2
-60 -20 0 -17 8 -19 68 -22 59 -3 67 -5 67 -23 0 -18 -8 -20 -87 -23 l-88 -3
0 116 0 116 88 -3 c79 -3 87 -5 87 -23z m151 -10 c10 -19 22 -35 25 -35 4 0
16 16 28 35 13 22 28 35 41 35 19 0 20 -6 20 -115 0 -108 -1 -115 -20 -115
-18 0 -20 7 -21 73 0 68 -1 71 -16 50 -19 -27 -41 -29 -59 -5 -12 15 -13 8
-14 -50 0 -66 -1 -68 -25 -68 l-25 0 0 115 c0 114 0 115 23 115 17 0 29 -10
43 -35z m244 7 c0 -16 9 -37 20 -47 20 -18 21 -18 45 5 14 13 25 34 25 47 0
20 5 24 23 21 38 -5 34 -50 -7 -96 -30 -33 -36 -47 -36 -86 0 -42 -2 -46 -25
-46 -23 0 -25 4 -25 43 0 35 -7 51 -35 84 -44 52 -49 103 -10 103 21 0 25 -5
25 -28z"/>
<path d="M1336 3554 c-20 -19 -22 -126 -3 -142 7 -6 85 -12 182 -14 190 -4
211 -10 273 -77 28 -31 32 -32 23 -11 -5 14 -17 58 -26 98 l-17 72 -42 0 c-47
0 -66 13 -66 47 0 36 -30 43 -174 43 -109 0 -138 -3 -150 -16z"/>
<path d="M2137 3353 c-9 -9 -7 -157 2 -213 7 -34 9 -13 10 88 0 72 0 132 -2
132 -2 0 -7 -3 -10 -7z"/>
<path d="M1154 3320 c4 -19 14 -68 22 -107 l15 -73 53 0 c56 0 76 -12 76 -45
0 -12 5 -26 12 -33 17 -17 299 -17 316 0 7 7 12 39 12 75 0 51 -3 64 -19 73
-11 5 -87 10 -173 10 -141 0 -157 2 -205 24 -34 16 -63 40 -83 68 l-32 43 6
-35z"/>
<path d="M1706 2883 c-4 -5 -92 -10 -194 -13 -186 -5 -187 -5 -154 -23 54 -29
136 -40 210 -27 64 11 135 40 147 60 7 12 2 13 -9 3z"/>
<path d="M1375 2362 c-73 -24 -85 -54 -85 -205 0 -168 11 -190 113 -216 46
-12 159 9 187 34 24 22 44 71 36 90 -9 23 -73 20 -86 -5 -17 -31 -54 -25 -89
15 -49 56 -39 100 38 155 38 28 45 30 53 16 10 -17 54 -21 77 -7 33 21 -13 98
-72 120 -30 12 -139 13 -172 3z"/>
<path d="M1842 2359 c-59 -17 -72 -54 -72 -207 0 -158 9 -180 87 -206 59 -20
97 -20 155 0 60 20 77 40 99 118 16 60 16 72 3 148 -16 94 -36 128 -85 145
-40 14 -141 15 -187 2z"/>
<path d="M1320 1530 c0 -17 7 -20 45 -20 38 0 45 3 45 20 0 17 -7 20 -45 20
-38 0 -45 -3 -45 -20z"/>
<path d="M1590 1530 c0 -17 7 -20 40 -20 33 0 40 3 40 20 0 17 -7 20 -40 20
-33 0 -40 -3 -40 -20z"/>
<path d="M1854 1536 c-3 -7 -4 -35 -2 -62 l3 -49 43 -3 42 -3 0 65 0 66 -40 0
c-25 0 -43 -5 -46 -14z"/>
<path d="M2120 1485 l0 -65 40 0 c33 0 40 3 40 20 0 13 -7 20 -20 20 -15 0
-20 7 -20 25 0 23 4 25 46 25 27 0 43 4 39 10 -3 6 -15 10 -26 10 -10 0 -19 5
-19 10 0 6 -18 10 -40 10 l-40 0 0 -65z"/>
<path d="M2380 1530 c0 -17 7 -20 45 -20 38 0 45 3 45 20 0 17 -7 20 -45 20
-38 0 -45 -3 -45 -20z"/>
<path d="M2315 1501 c-4 -23 -2 -48 4 -58 8 -14 10 -5 11 40 0 67 -5 73 -15
18z"/>
<path d="M1527 1523 c-11 -10 -8 -51 3 -58 6 -4 10 8 10 29 0 37 -2 41 -13 29z"/>
<path d="M1263 1485 c0 -22 2 -30 4 -17 2 12 2 30 0 40 -3 9 -5 -1 -4 -23z"/>
<path d="M1707 1478 c-12 -13 -16 -26 -11 -41 6 -20 8 -18 21 17 7 22 12 40
11 41 -2 1 -11 -7 -21 -17z"/>
<path d="M1992 1470 c0 -19 2 -27 5 -17 2 9 2 25 0 35 -3 9 -5 1 -5 -18z"/>
<path d="M1320 1435 c0 -31 5 -31 55 0 l40 25 -47 0 c-45 0 -48 -2 -48 -25z"/>
<path d="M1590 1425 c0 -33 2 -35 35 -35 l35 0 -17 35 c-10 21 -24 35 -35 35
-14 0 -18 -8 -18 -35z"/>
<path d="M2380 1441 c0 -37 12 -51 42 -51 25 0 29 3 23 18 -4 9 -10 25 -12 35
-7 25 -53 23 -53 -2z"/>
<path d="M1878 1363 c12 -2 30 -2 40 0 9 3 -1 5 -23 4 -22 0 -30 -2 -17 -4z"/>
<path d="M2138 1363 c12 -2 32 -2 45 0 12 2 2 4 -23 4 -25 0 -35 -2 -22 -4z"/>
<path d="M1686 1110 c-9 -22 -16 -43 -16 -45 0 -3 16 -5 35 -5 19 0 35 4 35 9
0 11 -29 81 -34 81 -2 0 -11 -18 -20 -40z"/>
<path d="M1930 1085 c0 -64 1 -65 27 -65 25 0 25 1 10 18 -26 28 -21 54 15 84
l33 27 -42 1 -43 0 0 -65z"/>
<path d="M2216 1110 c-9 -22 -16 -43 -16 -45 0 -3 16 -5 35 -5 19 0 35 4 35 9
0 11 -29 81 -34 81 -2 0 -11 -18 -20 -40z"/>
<path d="M2460 1085 l0 -66 43 3 42 3 0 60 0 60 -42 3 -43 3 0 -66z"/>
<path d="M1802 1040 c0 -19 2 -27 5 -17 2 9 2 25 0 35 -3 9 -5 1 -5 -18z"/>
<path d="M2332 1040 c0 -19 2 -27 5 -17 2 9 2 25 0 35 -3 9 -5 1 -5 -18z"/>
<path d="M1662 998 c3 -7 23 -14 46 -16 33 -2 42 0 42 12 0 12 -11 16 -46 16
-32 0 -44 -4 -42 -12z"/>
<path d="M2192 998 c3 -7 23 -14 46 -16 33 -2 42 0 42 12 0 12 -11 16 -46 16
-32 0 -44 -4 -42 -12z"/>
<path d="M1953 963 c9 -2 23 -2 30 0 6 3 -1 5 -18 5 -16 0 -22 -2 -12 -5z"/>
<path d="M3497 3562 c-4 -5 -75 -181 -134 -329 -4 -10 32 -13 162 -13 155 0
167 1 161 18 -4 9 -35 88 -69 174 -59 149 -63 158 -89 158 -15 0 -29 -3 -31
-8z"/>
<path d="M2672 1523 c-5 -16 -13 -36 -17 -45 -6 -15 -1 -18 34 -18 23 0 41 2
41 5 0 14 -33 85 -40 85 -4 0 -13 -12 -18 -27z"/>
</g>
</svg>
