<svg xmlns="http://www.w3.org/2000/svg" xmlns:xlink="http://www.w3.org/1999/xlink" width="500" zoomAndPan="magnify" viewBox="0 0 375 374.999991" height="500" preserveAspectRatio="xMidYMid meet" version="1.2"><defs><clipPath id="9e291813c8"><path d="M 52.941406 0 L 322.058594 0 C 323.792969 0 325.523438 0.0859375 327.246094 0.253906 C 328.972656 0.425781 330.6875 0.679688 332.386719 1.015625 C 334.085938 1.355469 335.769531 1.777344 337.425781 2.28125 C 339.085938 2.78125 340.714844 3.367188 342.320312 4.03125 C 343.921875 4.695312 345.484375 5.433594 347.015625 6.25 C 348.542969 7.070312 350.03125 7.957031 351.472656 8.921875 C 352.914062 9.886719 354.304688 10.917969 355.644531 12.015625 C 356.984375 13.117188 358.269531 14.28125 359.492188 15.507812 C 360.71875 16.730469 361.882812 18.015625 362.984375 19.355469 C 364.082031 20.695312 365.113281 22.085938 366.078125 23.527344 C 367.042969 24.96875 367.929688 26.457031 368.75 27.984375 C 369.566406 29.515625 370.304688 31.078125 370.96875 32.679688 C 371.632812 34.285156 372.21875 35.914062 372.71875 37.574219 C 373.222656 39.230469 373.644531 40.914062 373.984375 42.613281 C 374.320312 44.3125 374.574219 46.027344 374.746094 47.753906 C 374.914062 49.476562 375 51.207031 375 52.941406 L 375 322.058594 C 375 323.792969 374.914062 325.523438 374.746094 327.246094 C 374.574219 328.972656 374.320312 330.6875 373.984375 332.386719 C 373.644531 334.085938 373.222656 335.769531 372.71875 337.425781 C 372.21875 339.085938 371.632812 340.714844 370.96875 342.320312 C 370.304688 343.921875 369.566406 345.484375 368.75 347.015625 C 367.929688 348.542969 367.042969 350.03125 366.078125 351.472656 C 365.113281 352.914062 364.082031 354.304688 362.984375 355.644531 C 361.882812 356.984375 360.71875 358.269531 359.492188 359.492188 C 358.269531 360.71875 356.984375 361.882812 355.644531 362.984375 C 354.304688 364.082031 352.914062 365.113281 351.472656 366.078125 C 350.03125 367.042969 348.542969 367.929688 347.015625 368.75 C 345.484375 369.566406 343.921875 370.304688 342.320312 370.96875 C 340.714844 371.632812 339.085938 372.21875 337.425781 372.71875 C 335.769531 373.222656 334.085938 373.644531 332.386719 373.984375 C 330.6875 374.320312 328.972656 374.574219 327.246094 374.746094 C 325.523438 374.914062 323.792969 375 322.058594 375 L 52.941406 375 C 51.207031 375 49.476562 374.914062 47.753906 374.746094 C 46.027344 374.574219 44.3125 374.320312 42.613281 373.984375 C 40.914062 373.644531 39.230469 373.222656 37.574219 372.71875 C 35.914062 372.21875 34.285156 371.632812 32.679688 370.96875 C 31.078125 370.304688 29.515625 369.566406 27.984375 368.75 C 26.457031 367.929688 24.96875 367.042969 23.527344 366.078125 C 22.085938 365.113281 20.695312 364.082031 19.355469 362.984375 C 18.015625 361.882812 16.730469 360.71875 15.507812 359.492188 C 14.28125 358.269531 13.117188 356.984375 12.015625 355.644531 C 10.917969 354.304688 9.886719 352.914062 8.921875 351.472656 C 7.957031 350.03125 7.070312 348.542969 6.25 347.015625 C 5.433594 345.484375 4.695312 343.921875 4.03125 342.320312 C 3.367188 340.714844 2.78125 339.085938 2.28125 337.425781 C 1.777344 335.769531 1.355469 334.085938 1.015625 332.386719 C 0.679688 330.6875 0.425781 328.972656 0.253906 327.246094 C 0.0859375 325.523438 0 323.792969 0 322.058594 L 0 52.941406 C 0 51.207031 0.0859375 49.476562 0.253906 47.753906 C 0.425781 46.027344 0.679688 44.3125 1.015625 42.613281 C 1.355469 40.914062 1.777344 39.230469 2.28125 37.574219 C 2.78125 35.914062 3.367188 34.285156 4.03125 32.679688 C 4.695312 31.078125 5.433594 29.515625 6.25 27.984375 C 7.070312 26.457031 7.957031 24.96875 8.921875 23.527344 C 9.886719 22.085938 10.917969 20.695312 12.015625 19.355469 C 13.117188 18.015625 14.28125 16.730469 15.507812 15.507812 C 16.730469 14.28125 18.015625 13.117188 19.355469 12.015625 C 20.695312 10.917969 22.085938 9.886719 23.527344 8.921875 C 24.96875 7.957031 26.457031 7.070312 27.984375 6.25 C 29.515625 5.433594 31.078125 4.695312 32.679688 4.03125 C 34.285156 3.367188 35.914062 2.78125 37.574219 2.28125 C 39.230469 1.777344 40.914062 1.355469 42.613281 1.015625 C 44.3125 0.679688 46.027344 0.425781 47.753906 0.253906 C 49.476562 0.0859375 51.207031 0 52.941406 0 Z M 52.941406 0 "/></clipPath><linearGradient x1="-0.001" gradientTransform="matrix(4.411764,0,0,4.411764,0.0000045,0)" y1="0" x2="-0.001" gradientUnits="userSpaceOnUse" y2="84.999998" id="c5ef51bcde"><stop style="stop-color:#00b2ff;stop-opacity:1;" offset="0"/><stop style="stop-color:#00b2ff;stop-opacity:1;" offset="0.0078125"/><stop style="stop-color:#00b1ff;stop-opacity:1;" offset="0.015625"/><stop style="stop-color:#00b1ff;stop-opacity:1;" offset="0.0234375"/><stop style="stop-color:#00b0ff;stop-opacity:1;" offset="0.03125"/><stop style="stop-color:#00afff;stop-opacity:1;" offset="0.0390625"/><stop style="stop-color:#00afff;stop-opacity:1;" offset="0.046875"/><stop style="stop-color:#00aeff;stop-opacity:1;" offset="0.0546875"/><stop style="stop-color:#00aeff;stop-opacity:1;" offset="0.0625"/><stop style="stop-color:#00adff;stop-opacity:1;" offset="0.0703125"/><stop style="stop-color:#00adff;stop-opacity:1;" offset="0.078125"/><stop style="stop-color:#00acff;stop-opacity:1;" offset="0.0859375"/><stop style="stop-color:#00acff;stop-opacity:1;" offset="0.09375"/><stop style="stop-color:#00abff;stop-opacity:1;" offset="0.101562"/><stop style="stop-color:#00aaff;stop-opacity:1;" offset="0.109375"/><stop style="stop-color:#00aaff;stop-opacity:1;" offset="0.117188"/><stop style="stop-color:#00a9ff;stop-opacity:1;" offset="0.125"/><stop style="stop-color:#00a9ff;stop-opacity:1;" offset="0.132812"/><stop style="stop-color:#00a8ff;stop-opacity:1;" offset="0.140625"/><stop style="stop-color:#00a8ff;stop-opacity:1;" offset="0.148438"/><stop style="stop-color:#00a7ff;stop-opacity:1;" offset="0.15625"/><stop style="stop-color:#00a6ff;stop-opacity:1;" offset="0.164062"/><stop style="stop-color:#00a6ff;stop-opacity:1;" offset="0.171875"/><stop style="stop-color:#00a5ff;stop-opacity:1;" offset="0.179688"/><stop style="stop-color:#00a5ff;stop-opacity:1;" offset="0.1875"/><stop style="stop-color:#00a4ff;stop-opacity:1;" offset="0.195312"/><stop style="stop-color:#00a4ff;stop-opacity:1;" offset="0.203125"/><stop style="stop-color:#00a3ff;stop-opacity:1;" offset="0.210938"/><stop style="stop-color:#00a3ff;stop-opacity:1;" offset="0.21875"/><stop style="stop-color:#00a2ff;stop-opacity:1;" offset="0.226562"/><stop style="stop-color:#00a1ff;stop-opacity:1;" offset="0.234375"/><stop style="stop-color:#00a1ff;stop-opacity:1;" offset="0.242188"/><stop style="stop-color:#00a0ff;stop-opacity:1;" offset="0.25"/><stop style="stop-color:#00a0ff;stop-opacity:1;" offset="0.257812"/><stop style="stop-color:#009fff;stop-opacity:1;" offset="0.265625"/><stop style="stop-color:#009fff;stop-opacity:1;" offset="0.273438"/><stop style="stop-color:#009eff;stop-opacity:1;" offset="0.28125"/><stop style="stop-color:#009dff;stop-opacity:1;" offset="0.289062"/><stop style="stop-color:#009dff;stop-opacity:1;" offset="0.296875"/><stop style="stop-color:#009cff;stop-opacity:1;" offset="0.304688"/><stop style="stop-color:#009cff;stop-opacity:1;" offset="0.3125"/><stop style="stop-color:#009bff;stop-opacity:1;" offset="0.320312"/><stop style="stop-color:#009bff;stop-opacity:1;" offset="0.328125"/><stop style="stop-color:#009aff;stop-opacity:1;" offset="0.335938"/><stop style="stop-color:#009aff;stop-opacity:1;" offset="0.34375"/><stop style="stop-color:#0099ff;stop-opacity:1;" offset="0.351562"/><stop style="stop-color:#0098ff;stop-opacity:1;" offset="0.359375"/><stop style="stop-color:#0098ff;stop-opacity:1;" offset="0.367188"/><stop style="stop-color:#0097ff;stop-opacity:1;" offset="0.375"/><stop style="stop-color:#0097ff;stop-opacity:1;" offset="0.382812"/><stop style="stop-color:#0096ff;stop-opacity:1;" offset="0.390625"/><stop style="stop-color:#0096ff;stop-opacity:1;" offset="0.398438"/><stop style="stop-color:#0095ff;stop-opacity:1;" offset="0.40625"/><stop style="stop-color:#0094ff;stop-opacity:1;" offset="0.414062"/><stop style="stop-color:#0094ff;stop-opacity:1;" offset="0.421875"/><stop style="stop-color:#0093ff;stop-opacity:1;" offset="0.429688"/><stop style="stop-color:#0093ff;stop-opacity:1;" offset="0.4375"/><stop style="stop-color:#0092ff;stop-opacity:1;" offset="0.445312"/><stop style="stop-color:#0092ff;stop-opacity:1;" offset="0.453125"/><stop style="stop-color:#0091ff;stop-opacity:1;" offset="0.460938"/><stop style="stop-color:#0091ff;stop-opacity:1;" offset="0.46875"/><stop style="stop-color:#0090ff;stop-opacity:1;" offset="0.476562"/><stop style="stop-color:#008fff;stop-opacity:1;" offset="0.484375"/><stop style="stop-color:#008fff;stop-opacity:1;" offset="0.492188"/><stop style="stop-color:#008eff;stop-opacity:1;" offset="0.5"/><stop style="stop-color:#008eff;stop-opacity:1;" offset="0.507812"/><stop style="stop-color:#008dff;stop-opacity:1;" offset="0.515625"/><stop style="stop-color:#008dff;stop-opacity:1;" offset="0.523437"/><stop style="stop-color:#008cff;stop-opacity:1;" offset="0.53125"/><stop style="stop-color:#008cff;stop-opacity:1;" offset="0.539062"/><stop style="stop-color:#008bff;stop-opacity:1;" offset="0.546875"/><stop style="stop-color:#008aff;stop-opacity:1;" offset="0.554687"/><stop style="stop-color:#008aff;stop-opacity:1;" offset="0.5625"/><stop style="stop-color:#0089ff;stop-opacity:1;" offset="0.570312"/><stop style="stop-color:#0089ff;stop-opacity:1;" offset="0.578125"/><stop style="stop-color:#0088ff;stop-opacity:1;" offset="0.585937"/><stop style="stop-color:#0088ff;stop-opacity:1;" offset="0.59375"/><stop style="stop-color:#0087ff;stop-opacity:1;" offset="0.601562"/><stop style="stop-color:#0086ff;stop-opacity:1;" offset="0.609375"/><stop style="stop-color:#0086ff;stop-opacity:1;" offset="0.617187"/><stop style="stop-color:#0085ff;stop-opacity:1;" offset="0.625"/><stop style="stop-color:#0085ff;stop-opacity:1;" offset="0.632812"/><stop style="stop-color:#0084ff;stop-opacity:1;" offset="0.640625"/><stop style="stop-color:#0084ff;stop-opacity:1;" offset="0.648437"/><stop style="stop-color:#0083ff;stop-opacity:1;" offset="0.65625"/><stop style="stop-color:#0083ff;stop-opacity:1;" offset="0.664062"/><stop style="stop-color:#0082ff;stop-opacity:1;" offset="0.671875"/><stop style="stop-color:#0081ff;stop-opacity:1;" offset="0.679687"/><stop style="stop-color:#0081ff;stop-opacity:1;" offset="0.6875"/><stop style="stop-color:#0080ff;stop-opacity:1;" offset="0.695312"/><stop style="stop-color:#0080ff;stop-opacity:1;" offset="0.703125"/><stop style="stop-color:#007fff;stop-opacity:1;" offset="0.710937"/><stop style="stop-color:#007fff;stop-opacity:1;" offset="0.71875"/><stop style="stop-color:#007eff;stop-opacity:1;" offset="0.726562"/><stop style="stop-color:#007dff;stop-opacity:1;" offset="0.734375"/><stop style="stop-color:#007dff;stop-opacity:1;" offset="0.742187"/><stop style="stop-color:#007cff;stop-opacity:1;" offset="0.75"/><stop style="stop-color:#007cff;stop-opacity:1;" offset="0.757812"/><stop style="stop-color:#007bff;stop-opacity:1;" offset="0.765625"/><stop style="stop-color:#007bff;stop-opacity:1;" offset="0.773437"/><stop style="stop-color:#007aff;stop-opacity:1;" offset="0.78125"/><stop style="stop-color:#007aff;stop-opacity:1;" offset="0.789062"/><stop style="stop-color:#0079ff;stop-opacity:1;" offset="0.796875"/><stop style="stop-color:#0078ff;stop-opacity:1;" offset="0.804687"/><stop style="stop-color:#0078ff;stop-opacity:1;" offset="0.8125"/><stop style="stop-color:#0077ff;stop-opacity:1;" offset="0.820312"/><stop style="stop-color:#0077ff;stop-opacity:1;" offset="0.828125"/><stop style="stop-color:#0076ff;stop-opacity:1;" offset="0.835937"/><stop style="stop-color:#0076ff;stop-opacity:1;" offset="0.84375"/><stop style="stop-color:#0075ff;stop-opacity:1;" offset="0.851562"/><stop style="stop-color:#0074ff;stop-opacity:1;" offset="0.859375"/><stop style="stop-color:#0074ff;stop-opacity:1;" offset="0.867187"/><stop style="stop-color:#0073ff;stop-opacity:1;" offset="0.875"/><stop style="stop-color:#0073ff;stop-opacity:1;" offset="0.882812"/><stop style="stop-color:#0072ff;stop-opacity:1;" offset="0.890625"/><stop style="stop-color:#0072ff;stop-opacity:1;" offset="0.898437"/><stop style="stop-color:#0071ff;stop-opacity:1;" offset="0.90625"/><stop style="stop-color:#0071ff;stop-opacity:1;" offset="0.914062"/><stop style="stop-color:#0070ff;stop-opacity:1;" offset="0.921875"/><stop style="stop-color:#006fff;stop-opacity:1;" offset="0.929687"/><stop style="stop-color:#006fff;stop-opacity:1;" offset="0.9375"/><stop style="stop-color:#006eff;stop-opacity:1;" offset="0.945312"/><stop style="stop-color:#006eff;stop-opacity:1;" offset="0.953125"/><stop style="stop-color:#006dff;stop-opacity:1;" offset="0.960937"/><stop style="stop-color:#006dff;stop-opacity:1;" offset="0.96875"/><stop style="stop-color:#006cff;stop-opacity:1;" offset="0.976562"/><stop style="stop-color:#006bff;stop-opacity:1;" offset="0.984375"/><stop style="stop-color:#006bff;stop-opacity:1;" offset="0.992187"/><stop style="stop-color:#006aff;stop-opacity:1;" offset="1"/></linearGradient></defs><g id="b990bfc5ce"><g clip-rule="nonzero" clip-path="url(#9e291813c8)"><rect x="0" width="375" y="0" height="374.999991" style="fill:url(#c5ef51bcde);stroke:none;"/></g><path style=" stroke:none;fill-rule:nonzero;fill:#ffffff;fill-opacity:1;" d="M 201.914062 302.636719 L 156.203125 302.636719 L 156.203125 185.074219 L 127.941406 185.074219 L 127.941406 146.296875 L 156.203125 146.296875 L 156.203125 133.832031 C 156.203125 113.007812 160.988281 97.261719 170.566406 86.589844 C 180.242188 75.921875 195.789062 70.589844 217.203125 70.589844 C 221.113281 70.589844 225.851562 70.84375 231.410156 71.359375 C 237.074219 71.769531 241.65625 72.230469 245.15625 72.742188 L 245.15625 111.058594 C 243.507812 110.851562 241.035156 110.648438 237.742188 110.441406 C 234.550781 110.136719 232.078125 109.980469 230.328125 109.980469 C 220.238281 109.980469 212.980469 112.03125 208.554688 116.136719 C 204.128906 120.238281 201.914062 127.316406 201.914062 137.371094 L 201.914062 146.296875 L 244.226562 146.296875 L 239.132812 185.074219 L 201.914062 185.074219 Z M 201.914062 302.636719 "/></g></svg>