<svg xmlns="http://www.w3.org/2000/svg" xmlns:xlink="http://www.w3.org/1999/xlink" width="500" zoomAndPan="magnify" viewBox="0 0 375 374.999991" height="500" preserveAspectRatio="xMidYMid meet" version="1.2"><g id="d950adc82e"><path style=" stroke:none;fill-rule:nonzero;fill:#459dd8;fill-opacity:1;" d="M 374.988281 187.492188 C 374.988281 190.558594 374.914062 193.625 374.765625 196.691406 C 374.613281 199.757812 374.386719 202.816406 374.085938 205.871094 C 373.785156 208.921875 373.410156 211.96875 372.960938 215.003906 C 372.511719 218.039062 371.984375 221.0625 371.386719 224.070312 C 370.789062 227.082031 370.117188 230.074219 369.371094 233.050781 C 368.625 236.027344 367.808594 238.984375 366.917969 241.917969 C 366.027344 244.855469 365.0625 247.769531 364.03125 250.65625 C 362.996094 253.546875 361.890625 256.410156 360.71875 259.242188 C 359.542969 262.078125 358.300781 264.882812 356.988281 267.65625 C 355.675781 270.429688 354.296875 273.171875 352.851562 275.878906 C 351.402344 278.582031 349.890625 281.253906 348.3125 283.886719 C 346.738281 286.515625 345.09375 289.109375 343.390625 291.660156 C 341.6875 294.210938 339.917969 296.71875 338.089844 299.183594 C 336.261719 301.648438 334.375 304.066406 332.429688 306.4375 C 330.484375 308.8125 328.480469 311.132812 326.417969 313.40625 C 324.359375 315.679688 322.242188 317.902344 320.074219 320.074219 C 317.902344 322.242188 315.679688 324.359375 313.40625 326.417969 C 311.132812 328.480469 308.8125 330.484375 306.4375 332.429688 C 304.066406 334.375 301.648438 336.261719 299.183594 338.089844 C 296.71875 339.917969 294.210938 341.6875 291.660156 343.390625 C 289.109375 345.09375 286.515625 346.738281 283.886719 348.3125 C 281.253906 349.890625 278.582031 351.402344 275.878906 352.851562 C 273.171875 354.296875 270.429688 355.675781 267.65625 356.988281 C 264.882812 358.300781 262.078125 359.542969 259.242188 360.71875 C 256.410156 361.890625 253.546875 362.996094 250.65625 364.03125 C 247.769531 365.0625 244.855469 366.027344 241.917969 366.917969 C 238.984375 367.808594 236.027344 368.625 233.050781 369.371094 C 230.074219 370.117188 227.082031 370.789062 224.070312 371.386719 C 221.0625 371.984375 218.039062 372.511719 215.003906 372.960938 C 211.96875 373.410156 208.921875 373.785156 205.871094 374.085938 C 202.816406 374.386719 199.757812 374.613281 196.691406 374.765625 C 193.625 374.914062 190.558594 374.988281 187.492188 374.988281 C 184.421875 374.988281 181.355469 374.914062 178.292969 374.765625 C 175.226562 374.613281 172.167969 374.386719 169.113281 374.085938 C 166.058594 373.785156 163.015625 373.410156 159.980469 372.960938 C 156.945312 372.511719 153.921875 371.984375 150.914062 371.386719 C 147.902344 370.789062 144.910156 370.117188 141.933594 369.371094 C 138.957031 368.625 136 367.808594 133.0625 366.917969 C 130.128906 366.027344 127.214844 365.0625 124.324219 364.03125 C 121.4375 362.996094 118.574219 361.890625 115.738281 360.71875 C 112.902344 359.542969 110.097656 358.300781 107.324219 356.988281 C 104.550781 355.675781 101.8125 354.296875 99.105469 352.851562 C 96.398438 351.402344 93.730469 349.890625 91.097656 348.3125 C 88.464844 346.738281 85.875 345.09375 83.324219 343.390625 C 80.773438 341.6875 78.261719 339.917969 75.800781 338.089844 C 73.335938 336.261719 70.914062 334.375 68.542969 332.429688 C 66.171875 330.484375 63.847656 328.480469 61.574219 326.417969 C 59.300781 324.359375 57.078125 322.242188 54.910156 320.074219 C 52.742188 317.902344 50.625 315.679688 48.5625 313.40625 C 46.503906 311.132812 44.5 308.8125 42.554688 306.4375 C 40.605469 304.066406 38.71875 301.648438 36.890625 299.183594 C 35.0625 296.71875 33.296875 294.210938 31.59375 291.660156 C 29.886719 289.109375 28.246094 286.515625 26.667969 283.886719 C 25.089844 281.253906 23.578125 278.582031 22.132812 275.878906 C 20.6875 273.171875 19.308594 270.429688 17.996094 267.65625 C 16.683594 264.882812 15.441406 262.078125 14.265625 259.242188 C 13.089844 256.410156 11.988281 253.546875 10.953125 250.65625 C 9.917969 247.769531 8.957031 244.855469 8.066406 241.917969 C 7.175781 238.984375 6.359375 236.027344 5.613281 233.050781 C 4.867188 230.074219 4.195312 227.082031 3.597656 224.070312 C 2.996094 221.0625 2.472656 218.039062 2.023438 215.003906 C 1.574219 211.96875 1.195312 208.921875 0.894531 205.871094 C 0.59375 202.816406 0.371094 199.757812 0.21875 196.691406 C 0.0703125 193.625 -0.0078125 190.558594 -0.0078125 187.492188 C -0.0078125 184.421875 0.0703125 181.355469 0.21875 178.292969 C 0.371094 175.226562 0.59375 172.167969 0.894531 169.113281 C 1.195312 166.058594 1.574219 163.015625 2.023438 159.980469 C 2.472656 156.945312 2.996094 153.921875 3.597656 150.914062 C 4.195312 147.902344 4.867188 144.910156 5.613281 141.933594 C 6.359375 138.957031 7.175781 136 8.066406 133.0625 C 8.957031 130.128906 9.917969 127.214844 10.953125 124.324219 C 11.988281 121.4375 13.089844 118.574219 14.265625 115.738281 C 15.441406 112.902344 16.683594 110.097656 17.996094 107.324219 C 19.308594 104.550781 20.6875 101.8125 22.132812 99.105469 C 23.578125 96.398438 25.089844 93.730469 26.667969 91.097656 C 28.246094 88.464844 29.886719 85.875 31.59375 83.324219 C 33.296875 80.773438 35.0625 78.261719 36.890625 75.800781 C 38.71875 73.335938 40.605469 70.914062 42.554688 68.542969 C 44.5 66.171875 46.503906 63.847656 48.5625 61.574219 C 50.625 59.300781 52.742188 57.078125 54.910156 54.910156 C 57.078125 52.742188 59.300781 50.625 61.574219 48.5625 C 63.847656 46.503906 66.171875 44.5 68.542969 42.554688 C 70.914062 40.605469 73.335938 38.71875 75.800781 36.890625 C 78.261719 35.0625 80.773438 33.296875 83.324219 31.59375 C 85.875 29.886719 88.464844 28.246094 91.097656 26.667969 C 93.730469 25.089844 96.398438 23.578125 99.105469 22.132812 C 101.8125 20.6875 104.550781 19.308594 107.324219 17.996094 C 110.097656 16.683594 112.902344 15.441406 115.738281 14.265625 C 118.574219 13.089844 121.4375 11.988281 124.324219 10.953125 C 127.214844 9.917969 130.128906 8.957031 133.0625 8.066406 C 136 7.175781 138.957031 6.359375 141.933594 5.613281 C 144.910156 4.867188 147.902344 4.195312 150.914062 3.597656 C 153.921875 2.996094 156.945312 2.472656 159.980469 2.023438 C 163.015625 1.574219 166.058594 1.195312 169.113281 0.894531 C 172.167969 0.59375 175.226562 0.371094 178.292969 0.21875 C 181.355469 0.0703125 184.421875 -0.0078125 187.492188 -0.0078125 C 190.558594 -0.0078125 193.625 0.0703125 196.691406 0.21875 C 199.757812 0.371094 202.816406 0.59375 205.871094 0.894531 C 208.921875 1.195312 211.96875 1.574219 215.003906 2.023438 C 218.039062 2.472656 221.0625 2.996094 224.070312 3.597656 C 227.082031 4.195312 230.074219 4.867188 233.050781 5.613281 C 236.027344 6.359375 238.984375 7.175781 241.917969 8.066406 C 244.855469 8.957031 247.769531 9.917969 250.65625 10.953125 C 253.546875 11.988281 256.410156 13.089844 259.242188 14.265625 C 262.078125 15.441406 264.882812 16.683594 267.65625 17.996094 C 270.429688 19.308594 273.171875 20.6875 275.878906 22.132812 C 278.582031 23.578125 281.253906 25.089844 283.886719 26.667969 C 286.515625 28.246094 289.109375 29.886719 291.660156 31.59375 C 294.210938 33.296875 296.71875 35.0625 299.183594 36.890625 C 301.648438 38.71875 304.066406 40.605469 306.4375 42.554688 C 308.8125 44.5 311.132812 46.503906 313.40625 48.5625 C 315.679688 50.625 317.902344 52.742188 320.074219 54.910156 C 322.242188 57.078125 324.359375 59.300781 326.417969 61.574219 C 328.480469 63.847656 330.484375 66.171875 332.429688 68.542969 C 334.375 70.914062 336.261719 73.335938 338.089844 75.800781 C 339.917969 78.261719 341.6875 80.773438 343.390625 83.324219 C 345.09375 85.875 346.738281 88.464844 348.3125 91.097656 C 349.890625 93.730469 351.402344 96.398438 352.851562 99.105469 C 354.296875 101.8125 355.675781 104.550781 356.988281 107.324219 C 358.300781 110.097656 359.542969 112.902344 360.71875 115.738281 C 361.890625 118.574219 362.996094 121.4375 364.03125 124.324219 C 365.0625 127.214844 366.027344 130.128906 366.917969 133.0625 C 367.808594 136 368.625 138.957031 369.371094 141.933594 C 370.117188 144.910156 370.789062 147.902344 371.386719 150.914062 C 371.984375 153.921875 372.511719 156.945312 372.960938 159.980469 C 373.410156 163.015625 373.785156 166.058594 374.085938 169.113281 C 374.386719 172.167969 374.613281 175.226562 374.765625 178.292969 C 374.914062 181.355469 374.988281 184.421875 374.988281 187.492188 Z M 374.988281 187.492188 "/><path style=" stroke:none;fill-rule:nonzero;fill:#ffffff;fill-opacity:1;" d="M 303.011719 144.164062 L 303.011719 244.796875 C 303.011719 264.824219 287.625 281.058594 268.644531 281.058594 L 106.335938 281.058594 C 87.351562 281.058594 71.972656 264.824219 71.972656 244.796875 L 71.972656 144.121094 C 71.972656 142.34375 73.996094 141.304688 75.46875 142.3125 L 169.492188 206.492188 C 170.8125 207.390625 172.191406 208.1875 173.628906 208.878906 C 175.066406 209.570312 176.550781 210.152344 178.074219 210.621094 C 179.597656 211.09375 181.152344 211.449219 182.730469 211.683594 C 184.308594 211.921875 185.894531 212.042969 187.492188 212.042969 C 189.085938 212.042969 190.675781 211.921875 192.253906 211.683594 C 193.832031 211.449219 195.382812 211.09375 196.910156 210.621094 C 198.433594 210.152344 199.914062 209.570312 201.355469 208.878906 C 202.792969 208.1875 204.171875 207.390625 205.488281 206.492188 L 299.515625 142.3125 C 300.988281 141.304688 303.011719 142.34375 303.011719 144.121094 Z M 303.011719 144.164062 "/><path style=" stroke:none;fill-rule:nonzero;fill:#ffffff;fill-opacity:1;" d="M 291.855469 126.078125 L 208.375 183.421875 C 206.847656 184.472656 205.25 185.402344 203.582031 186.210938 C 201.914062 187.019531 200.195312 187.699219 198.425781 188.246094 C 196.65625 188.796875 194.851562 189.210938 193.019531 189.488281 C 191.1875 189.765625 189.34375 189.90625 187.492188 189.90625 C 185.636719 189.90625 183.796875 189.765625 181.960938 189.488281 C 180.128906 189.210938 178.328125 188.796875 176.558594 188.246094 C 174.789062 187.699219 173.070312 187.019531 171.402344 186.210938 C 169.734375 185.402344 168.136719 184.472656 166.609375 183.421875 L 83.128906 126.078125 C 69.058594 116.417969 75.5625 94.242188 92.621094 93.929688 C 92.855469 93.929688 93.089844 93.929688 93.320312 93.929688 L 281.65625 93.929688 C 281.890625 93.929688 282.125 93.929688 282.359375 93.929688 C 299.421875 94.242188 305.921875 116.414062 291.855469 126.078125 Z M 291.855469 126.078125 "/></g></svg>