<svg xmlns="http://www.w3.org/2000/svg" xmlns:xlink="http://www.w3.org/1999/xlink" width="500" zoomAndPan="magnify" viewBox="0 0 375 374.999991" height="500" preserveAspectRatio="xMidYMid meet" version="1.2"><g id="48c8ef8ad2"><path style=" stroke:none;fill-rule:nonzero;fill:#39b54a;fill-opacity:1;" d="M 231.648438 356.496094 C 201.90625 348.871094 182.304688 335.761719 161.480469 321.582031 C 116.675781 291.046875 86.410156 256.355469 67.621094 230.957031 C 51.371094 208.96875 28.863281 177.914062 17.117188 131.988281 C 7.855469 95.824219 12.421875 78.359375 15.511719 69.773438 C 23.21875 48.359375 43.480469 21.902344 65.976562 23.167969 C 76.589844 23.765625 86.359375 33.800781 105.472656 53.871094 C 130.238281 79.871094 142.625 92.878906 141.125 106.511719 C 141.125 106.511719 140.199219 114.929688 107.664062 148.722656 C 107.664062 148.722656 125.476562 182.75 146.613281 206.832031 C 180.453125 245.410156 229.445312 266.039062 229.445312 266.039062 C 229.445312 266.039062 248.886719 236.613281 269.398438 234.316406 C 280.742188 233.054688 289.765625 240.742188 307.34375 256.160156 C 335.550781 280.910156 353.820312 296.925781 351.222656 316.472656 C 348.34375 338.265625 321.351562 350.644531 312.5625 354.671875 C 281.617188 368.863281 250.921875 361.4375 231.648438 356.496094 Z M 211.359375 22.683594 C 215.140625 22.660156 218.921875 22.789062 222.691406 23.078125 C 224.085938 23.179688 225.492188 23.3125 226.890625 23.453125 C 227.515625 23.519531 228.140625 23.585938 228.765625 23.664062 C 229.601562 23.753906 232.757812 24.457031 229.71875 23.765625 C 233.019531 24.511719 236.445312 24.808594 239.773438 25.488281 C 247.894531 27.15625 255.902344 29.476562 263.648438 32.445312 C 264.742188 32.863281 265.824219 33.308594 266.921875 33.75 C 268.824219 34.507812 265.238281 33.007812 267.144531 33.839844 C 267.691406 34.089844 268.25 34.324219 268.800781 34.570312 C 271.054688 35.574219 273.296875 36.644531 275.5 37.75 C 279.960938 40.003906 284.304688 42.507812 288.503906 45.21875 C 290.8125 46.703125 293.066406 48.269531 295.285156 49.898438 C 295.660156 50.171875 296.039062 50.457031 296.40625 50.730469 C 296.601562 50.875 298.453125 52.308594 296.964844 51.148438 C 298.28125 52.179688 299.585938 53.234375 300.878906 54.316406 C 305.089844 57.847656 309.105469 61.625 312.886719 65.628906 C 314.75 67.59375 316.5625 69.628906 318.3125 71.699219 C 319.027344 72.546875 319.71875 73.394531 320.410156 74.253906 C 320.816406 74.761719 321.234375 75.285156 321.636719 75.792969 C 320.332031 74.136719 322.082031 76.390625 322.300781 76.691406 C 325.171875 80.550781 327.832031 84.550781 330.296875 88.667969 C 332.707031 92.707031 334.910156 96.878906 336.917969 101.140625 C 337.324219 101.988281 337.714844 102.847656 338.09375 103.707031 C 338.328125 104.214844 338.550781 104.722656 338.769531 105.246094 C 338.851562 105.414062 338.914062 105.585938 338.992188 105.753906 C 339.34375 106.589844 339.28125 106.429688 338.796875 105.296875 C 339.398438 106.015625 339.683594 107.460938 340.023438 108.335938 C 340.414062 109.324219 340.792969 110.328125 341.15625 111.332031 C 343.777344 118.472656 345.863281 125.8125 347.417969 133.253906 C 348.160156 136.835938 348.628906 140.445312 349.28125 144.03125 C 349.292969 144.070312 348.980469 141.65625 349.125 142.921875 C 349.175781 143.390625 349.242188 143.875 349.308594 144.34375 C 349.398438 145.136719 349.492188 145.933594 349.582031 146.726562 C 349.726562 148.082031 349.84375 149.4375 349.960938 150.792969 C 350.234375 154.390625 350.390625 158.015625 350.363281 161.625 C 350.335938 165.964844 354.210938 170.121094 358.671875 169.925781 C 363.195312 169.71875 366.9375 166.277344 366.976562 161.625 C 367.144531 135.519531 360.171875 108.960938 347.886719 86.023438 C 327.6875 48.292969 291.359375 20.9375 249.917969 10.773438 C 237.359375 7.699219 224.308594 5.992188 211.359375 6.09375 C 207.015625 6.132812 202.855469 9.886719 203.050781 14.398438 C 203.246094 18.855469 206.703125 22.726562 211.359375 22.683594 Z M 209.714844 64.898438 C 212.558594 64.832031 215.414062 64.898438 218.242188 65.078125 C 220.421875 65.222656 222.597656 65.445312 224.777344 65.691406 C 226.574219 65.902344 222.574219 65.367188 224.878906 65.707031 C 225.46875 65.785156 226.042969 65.875 226.628906 65.964844 C 228.011719 66.1875 229.378906 66.433594 230.75 66.707031 C 236.902344 67.933594 242.941406 69.652344 248.796875 71.894531 C 249.539062 72.183594 250.269531 72.480469 251 72.769531 C 252.460938 73.355469 250.792969 72.757812 250.6875 72.625 C 250.816406 72.78125 251.558594 73.003906 251.808594 73.109375 C 253.515625 73.863281 255.210938 74.671875 256.894531 75.519531 C 260.425781 77.316406 263.855469 79.3125 267.15625 81.5 C 268.707031 82.53125 270.21875 83.585938 271.707031 84.695312 C 272.085938 84.980469 272.464844 85.253906 272.839844 85.554688 C 271.617188 84.601562 272.621094 85.382812 272.855469 85.578125 C 273.792969 86.347656 274.746094 87.117188 275.65625 87.898438 C 278.839844 90.636719 281.863281 93.570312 284.695312 96.671875 C 285.882812 97.972656 287.042969 99.304688 288.152344 100.671875 C 288.699219 101.335938 289.257812 102 289.765625 102.691406 C 288.710938 101.269531 289.414062 102.234375 289.636719 102.535156 C 290.015625 103.042969 290.394531 103.550781 290.757812 104.058594 C 292.84375 106.953125 294.773438 109.949219 296.546875 113.050781 C 298.21875 115.972656 299.742188 118.957031 301.125 122.019531 C 301.371094 122.578125 301.972656 123.4375 302.011719 124.039062 C 301.933594 122.890625 301.488281 122.773438 301.804688 123.570312 C 301.972656 123.984375 302.140625 124.402344 302.3125 124.820312 C 302.898438 126.292969 303.445312 127.777344 303.96875 129.277344 C 305.753906 134.4375 307.175781 139.730469 308.21875 145.085938 C 308.480469 146.441406 308.726562 147.796875 308.9375 149.152344 C 309.039062 149.789062 309.117188 150.441406 309.222656 151.082031 C 309.417969 152.359375 309.078125 149.960938 309.078125 149.984375 C 309.105469 150.351562 309.171875 150.714844 309.222656 151.082031 C 309.484375 153.179688 309.679688 155.277344 309.808594 157.375 C 309.980469 159.957031 310.042969 162.550781 309.992188 165.140625 C 309.902344 169.480469 313.878906 173.640625 318.296875 173.445312 C 322.875 173.234375 326.515625 169.796875 326.605469 165.140625 C 326.984375 145.761719 321.960938 125.953125 313.121094 108.789062 C 298.335938 80.082031 270.820312 59.164062 239.5 51.644531 C 229.796875 49.3125 219.675781 48.058594 209.675781 48.28125 C 205.332031 48.371094 201.160156 52.035156 201.371094 56.582031 C 201.605469 61.015625 205.058594 65 209.714844 64.898438 Z M 210.261719 105.46875 C 212.246094 105.507812 214.226562 105.636719 216.195312 105.84375 C 216.574219 105.882812 216.953125 105.9375 217.332031 105.976562 C 218.621094 106.105469 216.328125 105.84375 216.328125 105.832031 C 217.03125 105.960938 217.746094 106.039062 218.464844 106.171875 C 220.210938 106.46875 221.945312 106.835938 223.667969 107.265625 C 225.429688 107.695312 227.164062 108.203125 228.882812 108.765625 C 229.808594 109.0625 230.722656 109.390625 231.636719 109.730469 C 232.195312 109.9375 232.757812 110.171875 233.316406 110.378906 C 234.921875 111.007812 231.882812 109.691406 233.605469 110.511719 C 237.894531 112.542969 242.015625 114.796875 245.863281 117.601562 C 245.808594 117.5625 247.6875 119.007812 246.773438 118.277344 C 245.847656 117.535156 247.753906 119.085938 247.675781 119.035156 C 248.601562 119.804688 249.5 120.597656 250.375 121.417969 C 252.171875 123.085938 253.882812 124.859375 255.472656 126.722656 C 255.746094 127.046875 257.925781 129.695312 256.59375 128.011719 C 257.234375 128.820312 257.832031 129.667969 258.417969 130.515625 C 259.65625 132.3125 260.820312 134.164062 261.886719 136.066406 C 262.800781 137.695312 263.648438 139.378906 264.429688 141.070312 C 264.585938 141.398438 264.730469 141.734375 264.875 142.0625 C 265.667969 143.796875 264.183594 140.289062 264.859375 142.035156 C 265.238281 143 265.617188 143.953125 265.957031 144.917969 C 267.039062 147.953125 267.9375 151.066406 268.617188 154.222656 C 268.917969 155.617188 269.191406 157.011719 269.410156 158.417969 C 269.464844 158.769531 269.515625 159.109375 269.570312 159.460938 C 269.816406 160.90625 269.292969 157.167969 269.449219 158.574219 C 269.515625 159.171875 269.59375 159.773438 269.660156 160.371094 C 269.816406 161.949219 269.921875 163.539062 269.960938 165.128906 C 270.0625 169.46875 273.703125 173.640625 278.265625 173.429688 C 282.671875 173.234375 286.691406 169.78125 286.574219 165.128906 C 286.257812 152.851562 282.933594 140.578125 277.300781 129.695312 C 267.847656 111.449219 250.804688 97.871094 231.152344 92.070312 C 224.410156 90.074219 217.277344 88.996094 210.25 88.835938 C 205.90625 88.746094 201.746094 92.722656 201.945312 97.140625 C 202.164062 101.753906 205.609375 105.375 210.261719 105.46875 Z M 210.261719 105.46875 "/></g></svg>