<svg xmlns="http://www.w3.org/2000/svg" xmlns:xlink="http://www.w3.org/1999/xlink" width="500" zoomAndPan="magnify" viewBox="0 0 375 374.999991" height="500" preserveAspectRatio="xMidYMid meet" version="1.2"><defs><clipPath id="9f84bd8715"><path d="M 14 10.480469 L 360 10.480469 L 360 356 L 14 356 Z M 14 10.480469 "/></clipPath></defs><g id="82eaa5e436"><g clip-rule="nonzero" clip-path="url(#9f84bd8715)"><path style=" stroke:none;fill-rule:nonzero;fill:#2bb673;fill-opacity:1;" d="M 186.742188 10.570312 C 265.5625 11.308594 333.664062 64.015625 353.742188 140.207031 C 374.863281 220.351562 334.328125 306.109375 258.378906 339.785156 C 202.875 364.390625 148.527344 360.613281 96.140625 329.695312 C 94.828125 328.921875 92.632812 328.703125 91.199219 329.21875 C 68.539062 337.347656 45.933594 345.640625 23.316406 353.894531 C 22.859375 354.0625 22.394531 354.402344 21.949219 354.375 C 19.921875 354.25 17.371094 354.675781 16.058594 353.609375 C 15.148438 352.871094 15.371094 349.777344 16.074219 348.164062 C 20.726562 337.453125 25.644531 326.859375 30.484375 316.230469 C 35.175781 305.933594 39.816406 295.617188 44.621094 285.375 C 45.636719 283.21875 45.410156 281.710938 44.09375 279.75 C -0.132812 213.84375 5.328125 128.480469 57.886719 69.019531 C 85.183594 38.136719 119.578125 19.660156 160.222656 13.074219 C 168.96875 11.65625 177.898438 11.375 186.742188 10.570312 Z M 245.464844 279.644531 C 248.929688 278.820312 252.207031 278.582031 254.988281 277.28125 C 267.878906 271.265625 277.101562 261.433594 282.699219 248.46875 C 285.464844 242.0625 284.582031 235.511719 279.1875 230.652344 C 267.304688 219.945312 254.59375 210.296875 240.199219 203.144531 C 232.589844 199.359375 223.550781 201.246094 217.816406 207.527344 C 215.4375 210.136719 213.148438 212.839844 210.984375 215.625 C 209.007812 218.167969 206.453125 218.855469 203.523438 218.242188 C 201.378906 217.789062 199.292969 217.144531 197.265625 216.308594 C 183.769531 210.78125 172.832031 201.832031 163.519531 190.777344 C 157.558594 183.703125 152.957031 175.917969 151.296875 166.628906 C 150.632812 162.894531 151.578125 159.964844 154.707031 157.6875 C 157.167969 155.898438 159.484375 153.910156 161.847656 151.992188 C 169.945312 145.421875 171.753906 138.824219 167.109375 129.457031 C 160.066406 115.242188 150.414062 102.84375 138.863281 92.027344 C 132.628906 86.1875 123.757812 85.234375 116.898438 89.832031 C 109.851562 94.558594 103.132812 99.859375 96.710938 105.414062 C 90.109375 111.128906 88.542969 118.769531 90.625 127.085938 C 94.589844 142.953125 101.804688 157.484375 110.195312 171.335938 C 139.6875 220.03125 181.117188 254.863281 233.757812 276.371094 C 237.527344 277.910156 241.644531 278.597656 245.464844 279.644531 Z M 245.464844 279.644531 "/></g><path style=" stroke:none;fill-rule:nonzero;fill:#ffffff;fill-opacity:1;" d="M 245.464844 279.644531 C 241.644531 278.597656 237.527344 277.910156 233.757812 276.371094 C 181.117188 254.863281 139.6875 220.03125 110.195312 171.335938 C 101.804688 157.484375 94.589844 142.953125 90.625 127.085938 C 88.542969 118.769531 90.109375 111.128906 96.710938 105.414062 C 103.132812 99.859375 109.851562 94.558594 116.898438 89.832031 C 123.757812 85.234375 132.628906 86.1875 138.863281 92.027344 C 150.410156 102.84375 160.066406 115.246094 167.109375 129.457031 C 171.753906 138.824219 169.945312 145.421875 161.847656 151.992188 C 159.484375 153.910156 157.167969 155.898438 154.707031 157.6875 C 151.574219 159.964844 150.632812 162.894531 151.296875 166.628906 C 152.957031 175.917969 157.558594 183.703125 163.519531 190.777344 C 172.835938 201.832031 183.773438 210.78125 197.265625 216.308594 C 199.292969 217.144531 201.378906 217.789062 203.523438 218.246094 C 206.453125 218.855469 209.007812 218.171875 210.984375 215.625 C 213.148438 212.839844 215.4375 210.136719 217.816406 207.53125 C 223.550781 201.246094 232.589844 199.363281 240.195312 203.144531 C 254.59375 210.296875 267.300781 219.945312 279.1875 230.652344 C 284.582031 235.511719 285.464844 242.0625 282.699219 248.46875 C 277.101562 261.4375 267.878906 271.269531 254.988281 277.285156 C 252.207031 278.582031 248.929688 278.820312 245.464844 279.644531 Z M 245.464844 279.644531 "/></g></svg>